PathFileType	4	(X/Y/Z)	C:/Users/beibeiliu/ov580/test_trc/User3\sequence.10_training_dense_left.trc
DataRate	CameraRate	NumFrames	NumMarkers	Units	OrigDataRate	OrigDataStartFrame	OrigNumFrames
120	120	11	19	mm	120	52	155
Frame#	Time	ThumbCMC			ThumbMCP			ThumbIP			ThumbTip			IndexMCP			IndexPIP			IndexTip			MiddleMCP			MiddlePIP			MiddleTip			RingMCP			RingPIP			RingTip			PinkyMCP			PinkyPIP			PinkyTip			BackHand1			BackHand2			BackHand3	
		X0	Y0	Z0	X1	Y1	Z1	X2	Y2	Z2	X3	Y3	Z3	X4	Y4	Z4	X5	Y5	Z5	X6	Y6	Z6	X7	Y7	Z7	X8	Y8	Z8	X9	Y9	Z9	X10	Y10	Z10	X11	Y11	Z11	X12	Y12	Z12	X13	Y13	Z13	X14	Y14	Z14	X15	Y15	Z15	X16	Y16	Z16	X17	Y17	Z17	X18	Y18	Z18	
51	0.425	-183.577	-15.1738	-12.7615	-166.814	11.9017	-36.6737	-139.816	19.1807	-51.1589	-110.136	16.6485	-56.0731	-160.946	-40.7155	-84.0259	-158.878	-35.2542	-110.496	-153.855	-29.32	-136.092	-131.619	-48.9474	-79.5232	-122.386	-43.0121	-104.685	-101.064	-27.6576	-132.942	-116.04	-26.0905	-61.6732	-112.309	5.73145	-55.1476	-126.168	8.71568	-26.2802	-100.798	-25.256	-40.0692	-109.644	3.4329	-33.7003	-130.092	2.86578	-15.2603	-137.142	-62.8367	-21.364	-144.519	-65.167	9.44827	-172.574	-57.1581	-19.0808	
52	0.433333	-179.716	-17.4334	-16.5808	-164.602	6.75162	-38.0514	-134.093	14.1987	-60.7904	-108.999	7.82615	-59.185	-162.607	-45.7937	-83.7263	-161.675	-41.9367	-110.426	-157.153	-36.7968	-136.856	-132.56	-55.255	-84.1024	-126.967	-50.5718	-106.507	-113.803	-42.2904	-136.22	-114.448	-33.5172	-60.4506	-111.623	-1.31948	-58.3275	-126.566	3.97314	-27.9266	-103.071	-30.077	-43.2325	-109.868	-2.50538	-36.1046	-129.045	-0.749333	-11.4331	-140.039	-64.5946	-22.9453	-148.33	-67.6591	11.3334	-174.761	-57.1039	-21.0094	
53	0.441667	-178.902	-5.09199	-14.5755	-155.481	11.4113	-43.812	-128.229	12.7139	-63.1161	-106.608	-0.144855	-61.7145	-172.071	-38.5579	-83.3154	-171.909	-33.8956	-111.609	-170.115	-29.7525	-133.976	-148.184	-52.0545	-86.8882	-137.783	-51.1826	-111.748	-125.776	-48.1708	-138.48	-123.969	-34.5819	-67.0077	-109.699	-8.74685	-61.3351	-122.655	2.69475	-33.9	-110.741	-37.3445	-48.7684	-109.481	-9.01425	-41.7099	-125.074	-3.30907	-17.467	-149.566	-65.829	-19.4846	-157.764	-62.6563	8.16134	-182.896	-46.7403	-20.5436	
54	0.45	-168.112	13.3886	-16.6439	-143.563	19.3065	-41.2314	-121.276	9.88229	-65.3622	-107.62	-12.405	-66.309	-184.805	-14.8181	-82.3895	-185.809	-9.38352	-112.001	-184.655	-6.18344	-131.77	-169.289	-41.1609	-84.3513	-164.464	-38.962	-113.96	-157.413	-39.4832	-143.086	-136.556	-37.0568	-68.2146	-112.303	-16.4558	-63.4543	-120.977	-3.50862	-36.6266	-123.578	-40.2981	-54.4187	-111.572	-17.72	-45.6515	-124.824	-9.12437	-21.0753	-169.85	-52.1272	-22.5533	-169.61	-46.8544	9.78542	-189.329	-19.6168	-15.5234	
55	0.458333	-154.429	26.9678	-13.9698	-133.658	22.7798	-46.8932	-124.633	3.89966	-68.4357	-121.359	-23.355	-76.0701	-194.844	14.0252	-74.0689	-197.763	20.1552	-102.51	-200.97	23.7807	-126.116	-196.399	-12.7137	-78.5949	-198.807	-14.0723	-108.056	-196.877	-20.3095	-134.728	-164.164	-24.7915	-69.3969	-128.844	-19.4107	-69.9106	-126.631	-7.16688	-41.9586	-149.699	-39.2892	-57.3409	-127.806	-23.9493	-53.8454	-129.872	-11.8909	-21.756	-188.18	-23.7917	-18.3002	-183.044	-20.6051	10.6619	-190.761	9.33533	-6.03985	
56	0.466667	-148.513	36.3846	-17.8085	-134.704	26.5723	-52.096	-135.08	6.12763	-77.3347	-142.076	-19.9083	-81.5573	-201.93	40.0603	-68.4622	-207.1	47.548	-92.9343	-213.429	52.6408	-114.3	-214.142	11.3005	-71.1072	-221.979	8.13479	-98.4675	-229.02	2.80975	-127.363	-184.221	-11.1196	-66.3944	-151.027	-16.4171	-73.5827	-139.542	-2.99472	-46.2689	-176.545	-26.6528	-54.4873	-148.71	-22.1765	-58.4891	-138.989	-10.3106	-28.9954	-200.451	-6.25379	-14.9731	-186.901	-4.81857	18.6213	-185.724	30.2175	-5.62235	
57	0.475	-144.069	37.3579	-14.9631	-139.114	28.5479	-50.9328	-150.628	9.18012	-76.7078	-162.501	-10.7239	-80.5897	-201.291	59.3585	-64.9386	-209.701	66.7557	-86.9673	-216.507	76.0226	-108.734	-221.625	32.815	-62.9781	-231.577	33.9891	-85.3321	-245.281	33.2573	-118.377	-196.461	4.12147	-68.4902	-168.893	-6.22119	-78.1865	-150.805	-1.87022	-53.5213	-192.371	-14.8342	-54.3999	-162.303	-17.3565	-58.8675	-147.74	-8.71424	-34.9509	-202.734	10.0347	-9.15349	-187.69	11.1672	18.5092	-181.506	40.2097	0.489128	
58	0.483333	-135.826	37.4656	-16.157	-138.396	27.1627	-52.1866	-150.67	15.5341	-77.5412	-173.165	-1.60147	-84.19	-188.914	72.4663	-59.572	-194.74	83.9863	-82.1444	-202.12	96.5717	-107.288	-214.049	52.9884	-58.7764	-227.218	60.5896	-87.2828	-239.544	66.3174	-114.54	-201.513	20.1327	-64.5513	-177.355	2.15105	-78.2208	-157.069	0.918595	-55.8298	-200.672	-0.671344	-55.7302	-174.622	-7.82709	-62.6083	-155.841	-4.48494	-36.2323	-201.325	29.2904	-10.6205	-187.284	17.3714	19.267	-175.076	47.5625	0.503331	
59	0.491667	-126.133	30.1695	-16.9965	-130.862	19.4801	-53.4655	-146.847	10.0302	-78.1522	-172.183	-0.723529	-82.1543	-166.736	78.3813	-68.1192	-166.265	89.672	-91.8393	-171.889	96.018	-110.562	-199.391	64.6539	-66.0423	-205.277	72.53	-89.1202	-217.803	76.3521	-118.268	-193.971	27.6269	-70.0562	-173.83	5.55157	-79.9093	-156.444	-1.15902	-51.1921	-199.011	9.6473	-54.9906	-173.508	-7.97185	-60.3306	-160.241	-6.04695	-38.1551	-195.114	35.5952	-8.81822	-184.673	26.5437	17.4108	-159.262	53.2546	-2.75664	
60	0.5	-116.727	20.2228	-17.7684	-121.458	4.9872	-51.5977	-140.976	-6.5271	-79.3722	-164.575	-11.7337	-79.9919	-146.731	61.1591	-74.1221	-144.964	68.3956	-100.773	-145.825	74.7726	-128.586	-175.647	58.4556	-76.9422	-183.295	59.9601	-100.964	-189.67	64.8197	-135.452	-182.729	21.757	-73.2074	-170.767	-7.07464	-78.43	-153.283	-11.0974	-52.4445	-189.445	7.2029	-57.8817	-172.939	-16.2139	-58.3749	-156.94	-17.441	-33.5	-181.536	41.2883	-19.7965	-172.78	32.6012	13.6517	-149.651	46.7847	-9.25314	
61	0.508333	-107.609	7.93372	-16.5558	-110.311	-15.7603	-45.5602	-127.686	-31.0438	-68.0746	-156.166	-36.1904	-74.7197	-132.2	35.723	-82.8296	-126.872	35.1274	-110.942	-120.77	33.8597	-135.712	-160.181	33.8924	-87.8573	-166.475	29.5256	-114.649	-169.592	24.4312	-145.012	-172.784	1.59894	-71.9044	-160.639	-27.6988	-72.235	-148.507	-26.5046	-40.0038	-182.335	-10.892	-56.8363	-164.228	-31.9269	-49.6644	-150.118	-24.8369	-26.0904	-171.301	33.2443	-27.1012	-164.698	32.7412	4.61929	-132.571	42.0776	-14.9133	
